<svg xmlns="http://www.w3.org/2000/svg" width="600" height="120" viewBox="0 0 600 120"><path d="M69.238,58.637c28.22,3.206,51.192,26.5,53.921,54.666.644,6.652.644,6.652-5.985,6.652h-54.6c-31.517,0-56.9-21.621-61.862-52.709C-3.9,38.717,14.381,7.813,42.455.045c-.069.709-.7.953-1.13,1.315C18.162,20.728,31.972,58.274,62.079,58.229"/><path d="M66.24,58.245c28.185-5.28,37.688-39.6,15.115-57.836C84.478.19,93.917,4.861,99.08,9.068a4.451,4.451,0,0,0,1.127,1.579c6.24,6.2,7.5,14.043,6.779,22.249A32.231,32.231,0,0,1,94.571,55.88c-1.617,1.3-3.572,1.571-5.341,2.383q-8.557.02-17.113.045" fill="#e94"/><path d="M89.231,58.257c17.562-10.117,21.586-33.1,9.847-49.19a61.6,61.6,0,0,1,24.51,46.892C120.456,61.921,97.084,56.6,89.231,58.257Z" fill="#e64"/><path d="M73.381,19.722c-.283,2.472-.845,6.342-3.3,7.318-1.332.43-2.326-1.683-3.351-2.747-1.609-1.666-4.607-3.072-4.429-5.084.183-1.874,3.245-3.528,4.811-5.266,3.214-3.217,3.953-3.039,5.561,1.313A13.269,13.269,0,0,1,73.381,19.722Z"/><path d="M214.252,83.755A18.022,18.022,0,0,1,211.084,94.7a18.411,18.411,0,0,1-8.832,6.24,39.173,39.173,0,0,1-13.152,2.016H165.292v-67.2h22.464a33.046,33.046,0,0,1,11.712,1.92,16.978,16.978,0,0,1,7.968,5.568,14.8,14.8,0,0,1,2.976,9.5,13.749,13.749,0,0,1-2.688,8.544,17.564,17.564,0,0,1-7.3,5.376,22.053,22.053,0,0,1,9.888,6.048Q214.252,76.843,214.252,83.755ZM186.508,46.7h-7.392V62.635h7.392a10.931,10.931,0,0,0,7.1-2.112,7.417,7.417,0,0,0,2.592-5.952,6.866,6.866,0,0,0-2.592-5.76A10.931,10.931,0,0,0,186.508,46.7Zm-7.392,45.312h8.832a14.791,14.791,0,0,0,8.64-2.4q3.456-2.4,3.456-7.584,0-4.9-3.456-7.1a15.247,15.247,0,0,0-8.64-2.3h-8.832ZM219.9,80.875a21.719,21.719,0,0,1,11.9-20.16,28.9,28.9,0,0,1,25.152,0,21.7,21.7,0,0,1,8.736,8.064,22.22,22.22,0,0,1,3.264,12.1,22.529,22.529,0,0,1-3.264,12.1,21.7,21.7,0,0,1-8.736,8.064,28.9,28.9,0,0,1-25.152,0,22.549,22.549,0,0,1-8.736-8.064A23.05,23.05,0,0,1,219.9,80.875Zm12.768,0a12.4,12.4,0,0,0,3.36,9.024,11.379,11.379,0,0,0,8.352,3.456,11.065,11.065,0,0,0,8.256-3.456,12.2,12.2,0,0,0,3.456-9.024,12.007,12.007,0,0,0-3.456-9.024A11.065,11.065,0,0,0,244.38,68.4a11.379,11.379,0,0,0-8.352,3.456A12.2,12.2,0,0,0,232.668,80.875Zm68.849-9.024a9.165,9.165,0,0,0-2.592-1.728,6.64,6.64,0,0,0-3.168-.672,6.079,6.079,0,0,0-5.376,2.688,13.217,13.217,0,0,0-1.824,7.488v23.328H276.269V58.8h12.288v5.472a15.975,15.975,0,0,1,4.8-4.7,10.779,10.779,0,0,1,5.76-1.728,12.534,12.534,0,0,1,4.608.864,7.516,7.516,0,0,1,3.456,2.592Zm7.262,9.024a24.344,24.344,0,0,1,2.976-12.48,20.432,20.432,0,0,1,7.776-7.872A21.41,21.41,0,0,1,330,57.835a16.954,16.954,0,0,1,15.168,8.256V28.075h12.48v74.88h-12.48v-7.3A16.954,16.954,0,0,1,330,103.915a21.41,21.41,0,0,1-10.464-2.688,20.432,20.432,0,0,1-7.776-7.872A24.673,24.673,0,0,1,308.779,80.875Zm12.96,0a12.583,12.583,0,0,0,3.456,9.312,11.873,11.873,0,0,0,8.448,3.36,10.757,10.757,0,0,0,5.28-1.44,12.4,12.4,0,0,0,4.416-4.32,12.651,12.651,0,0,0,1.824-6.912,12.171,12.171,0,0,0-1.824-6.816,11.425,11.425,0,0,0-4.416-4.32,10.247,10.247,0,0,0-5.28-1.536,11.873,11.873,0,0,0-8.448,3.36Q321.739,74.923,321.739,80.875Zm66.774,23.04a27.208,27.208,0,0,1-12.672-2.784,20.686,20.686,0,0,1-8.352-8.064,24.709,24.709,0,0,1-2.88-12.192q0-10.56,6.432-16.8t17.472-6.24q10.944,0,16.992,5.952,6.048,5.856,6.048,16.512a16.532,16.532,0,0,1-.1,1.824,13.459,13.459,0,0,0-.1,1.44h-34.08a13.043,13.043,0,0,0,3.456,8.064,10.923,10.923,0,0,0,7.776,2.784q8.16,0,11.9-6.432l10.944,3.456Q404.449,103.915,388.513,103.915Zm-.192-37.248q-9.024,0-10.752,9.312h20.544a10.037,10.037,0,0,0-3.072-6.72A9.092,9.092,0,0,0,388.321,66.667Zm55.842,5.184a9.165,9.165,0,0,0-2.592-1.728,6.64,6.64,0,0,0-3.168-.672,6.079,6.079,0,0,0-5.376,2.688,13.217,13.217,0,0,0-1.824,7.488v23.328H418.915V58.8H431.2v5.472a15.975,15.975,0,0,1,4.8-4.7,10.779,10.779,0,0,1,5.76-1.728,12.534,12.534,0,0,1,4.608.864,7.516,7.516,0,0,1,3.456,2.592ZM454.4,28.075h12.48v74.88H454.4Zm43.758,75.84a27.208,27.208,0,0,1-12.672-2.784,20.686,20.686,0,0,1-8.352-8.064,24.709,24.709,0,0,1-2.88-12.192q0-10.56,6.432-16.8t17.472-6.24q10.944,0,16.992,5.952Q521.2,69.643,521.2,80.3a16.532,16.532,0,0,1-.1,1.824,13.459,13.459,0,0,0-.1,1.44h-34.08a13.043,13.043,0,0,0,3.456,8.064,10.923,10.923,0,0,0,7.776,2.784q8.16,0,11.9-6.432l10.944,3.456Q514.1,103.915,498.159,103.915Zm-.192-37.248q-9.024,0-10.752,9.312h20.544a10.037,10.037,0,0,0-3.072-6.72A9.092,9.092,0,0,0,497.967,66.667ZM524.721,58.8h5.184V42.475q0-7.584,3.936-11.616,4.032-4.128,11.616-4.128a14.039,14.039,0,0,1,7.008,1.536,16.8,16.8,0,0,1,4.128,2.976l-5.376,9.312a4.921,4.921,0,0,0-2.112-1.92,6.425,6.425,0,0,0-2.5-.48,3.936,3.936,0,0,0-3.36,1.728Q542,41.611,542,45.355V58.8h10.56v10.56H542v33.6h-12.1v-33.6h-5.184Zm27.569,0h7.584V43.435h12.1V58.8h7.68v10.56h-7.68v33.6h-12.1v-33.6H552.29Z"/></svg>