<svg xmlns="http://www.w3.org/2000/svg" width="600" height="120" viewBox="0 0 600 120"><path d="M122.893 119.735c-21.501.348-43.017.353-64.549.015C-8.445 119.028-23.036 19.06 41.639.072c-24.092 18.732-11.435 58.411 19.649 58.13a60.995 60.995 0 0140.831 15.785c20.784 18.74 20.696 41.695 20.774 45.748z"/><path d="M79.942 0c23.35 17.328 14.24 53.938-14.486 58.21 7.873 1.095 23.73-.063 23.73-.063s3.204-.601 4.699-1.253c14.901-6.821 19.574-26.843 10.856-40.6C99.309 8.264 89.074 2.718 79.941 0z" fill="#E94"/><path d="M122.75 58.145H89.185c17.186-12.49 20.466-29.766 10.142-47.862 15.111 10.759 23.843 29.461 23.423 47.861z" fill="#E64"/><path d="M72.74 19.74c0 4.068-2.75 7.366-2.75 7.366l-8.052-7.366 8.052-7.366s2.75 3.298 2.75 7.366zm141.512 64.015a18.024 18.024 0 01-3.168 10.945 18.412 18.412 0 01-8.832 6.24 39.172 39.172 0 01-13.152 2.016h-23.808v-67.2h22.464a33.047 33.047 0 0111.712 1.92 16.98 16.98 0 017.968 5.568 14.8 14.8 0 012.976 9.5 13.745 13.745 0 01-2.688 8.544 17.563 17.563 0 01-7.3 5.376 22.056 22.056 0 019.888 6.048c2.627 2.754 3.94 6.435 3.94 11.043zM186.508 46.7h-7.392v15.935h7.392a10.93 10.93 0 007.1-2.112 7.417 7.417 0 002.592-5.952 6.86 6.86 0 00-2.592-5.76 10.932 10.932 0 00-7.1-2.111zm-7.392 45.312h8.832a14.79 14.79 0 008.64-2.4c2.304-1.6 3.456-4.128 3.456-7.584 0-3.267-1.152-5.633-3.456-7.1a15.247 15.247 0 00-8.64-2.3h-8.832v19.384zM219.9 80.875a21.717 21.717 0 0111.9-20.16 28.9 28.9 0 0125.152 0 21.703 21.703 0 018.736 8.064 22.22 22.22 0 013.264 12.1 22.527 22.527 0 01-3.264 12.1 21.703 21.703 0 01-8.736 8.064 28.904 28.904 0 01-25.152 0 22.547 22.547 0 01-8.736-8.064 23.057 23.057 0 01-3.164-12.104zm12.768 0a12.4 12.4 0 003.36 9.024 11.381 11.381 0 008.352 3.456 11.065 11.065 0 008.256-3.456 12.202 12.202 0 003.456-9.024 12.013 12.013 0 00-3.456-9.024 11.064 11.064 0 00-8.256-3.451 11.383 11.383 0 00-8.352 3.456 12.211 12.211 0 00-3.36 9.019zm68.849-9.024a9.169 9.169 0 00-2.592-1.728 6.64 6.64 0 00-3.168-.672 6.077 6.077 0 00-5.376 2.688 13.223 13.223 0 00-1.824 7.488v23.328h-12.288V58.8h12.288v5.472a15.977 15.977 0 014.8-4.7 10.778 10.778 0 015.76-1.728c1.577-.004 3.14.289 4.608.864a7.518 7.518 0 013.456 2.592l-5.664 10.551zm7.262 9.024a24.343 24.343 0 012.976-12.48 20.432 20.432 0 017.776-7.872A21.41 21.41 0 01330 57.835a16.954 16.954 0 0115.168 8.256V28.075h12.48v74.88h-12.48v-7.3a16.954 16.954 0 01-15.168 8.26 21.412 21.412 0 01-10.464-2.688 20.432 20.432 0 01-7.776-7.872 24.676 24.676 0 01-2.981-12.48zm12.96 0a12.584 12.584 0 003.456 9.312 11.867 11.867 0 008.448 3.36 10.755 10.755 0 005.28-1.44 12.4 12.4 0 004.416-4.32 12.65 12.65 0 001.824-6.912 12.171 12.171 0 00-1.824-6.816 11.421 11.421 0 00-4.416-4.32 10.247 10.247 0 00-5.28-1.536 11.867 11.867 0 00-8.448 3.36c-2.304 2.24-3.456 5.344-3.456 9.312zm66.774 23.04a27.217 27.217 0 01-12.672-2.784 20.682 20.682 0 01-8.352-8.064 24.716 24.716 0 01-2.88-12.192c0-7.04 2.144-12.64 6.432-16.8s10.112-6.24 17.472-6.24c7.296 0 12.96 1.984 16.992 5.952 4.032 3.904 6.048 9.408 6.048 16.512 0 .61-.033 1.218-.1 1.824-.059.478-.092.959-.1 1.44h-34.08a13.04 13.04 0 003.456 8.064 10.924 10.924 0 007.776 2.784c5.44 0 9.407-2.144 11.9-6.432l10.944 3.456c-4.6 8.32-12.212 12.48-22.836 12.48zm-.192-37.248c-6.016 0-9.6 3.104-10.752 9.312h20.544a10.037 10.037 0 00-3.072-6.72 9.1 9.1 0 00-6.72-2.592zm55.842 5.184a9.169 9.169 0 00-2.592-1.728 6.64 6.64 0 00-3.168-.672 6.077 6.077 0 00-5.376 2.688 13.223 13.223 0 00-1.824 7.488v23.328h-12.288V58.8H431.2v5.472a15.977 15.977 0 014.8-4.7 10.778 10.778 0 015.76-1.728c1.577-.004 3.14.289 4.608.864a7.518 7.518 0 013.456 2.592l-5.661 10.551zM454.4 28.075h12.48v74.88H454.4v-74.88zm43.758 75.84a27.217 27.217 0 01-12.672-2.784 20.682 20.682 0 01-8.352-8.064 24.716 24.716 0 01-2.88-12.192c0-7.04 2.144-12.64 6.432-16.8s10.112-6.24 17.472-6.24c7.296 0 12.96 1.984 16.992 5.952 4.033 3.904 6.05 9.408 6.05 16.513 0 .61-.033 1.218-.1 1.824-.059.478-.092.959-.1 1.44h-34.08a13.04 13.04 0 003.456 8.064 10.924 10.924 0 007.776 2.784c5.44 0 9.407-2.144 11.9-6.432l10.944 3.456c-4.597 8.32-12.21 12.479-22.837 12.479h-.001zm-.192-37.248c-6.016 0-9.6 3.104-10.752 9.312h20.544a10.037 10.037 0 00-3.072-6.72 9.093 9.093 0 00-6.719-2.592h-.001zm26.755-7.867h5.184V42.475c0-5.056 1.312-8.928 3.936-11.616 2.688-2.752 6.56-4.128 11.616-4.128a14.04 14.04 0 017.008 1.536 16.805 16.805 0 014.128 2.976l-5.376 9.312a4.923 4.923 0 00-2.112-1.92 6.427 6.427 0 00-2.5-.48 3.936 3.936 0 00-3.36 1.728c-.83 1.152-1.245 2.976-1.245 5.472V58.8h10.56v10.56H542v33.6h-12.1v-33.6h-5.184l.005-10.56zm27.569 0h7.584V43.435h12.1V58.8h7.68v10.56h-7.68v33.6h-12.1v-33.6h-7.584V58.8z"/></svg>