<svg xmlns="http://www.w3.org/2000/svg" width="512" height="512" viewBox="0 0 512 512"><g clip-rule="evenodd" stroke-linecap="round" stroke-linejoin="round" stroke-miterlimit="10"><path fill-rule="evenodd" fill="#1B1B1B" stroke="#1B1B1B" stroke-width="8" d="M327.72 118.75l-.95.57C539.7 473.68 202.33 426.9 148.19 401.27 82.64 369.94 46.44 315.7 18.05 282.61c-5.7-6.65 26.24 7.46 22.8 1.89-4.31-6.96-32.5-48.59-36.1-61.7-2.12-7.7 35.53 42.76 34.2 36.07-2.35-11.8-6.55-24.11-4.75-22.78 3.66 2.71 13.29 18.03 17.7 20.58 25.65 14.83 60.9 24.18 71.59-4.44 43.98-117.81-7.8-229.69 149.13-232.26"/><path fill-rule="evenodd" fill="#FFF" stroke="#1B1B1B" stroke-width="8" d="M390.41 319.63c-30.4 17.09-50.49-116.19-143.43-153.79-79.8-32.28-74.1-144.3 23.74-135.75 17.06 1.49 149.7 251.68 119.69 289.54z"/><path fill-rule="evenodd" fill="#E34234" stroke="#1B1B1B" stroke-width="8" d="M239.38 22.49c88.34-26.58 277.9 60.4 268.28 129.07-45.13-55.06-121.2-69.11-181.84-32.81 0 0-60.71 4.37-61.75-31.7-.95-33.23-24.91-64.49-24.69-64.56z"/><path fill-rule="evenodd" fill="#1B1B1B" stroke="#1B1B1B" stroke-width="8" d="M447.41 71.33c36.12 26.42 62.97 53.08 59.3 79.28-20.07-24.49-42.46-56.58-70.69-64.02 0 0-5.18-27.37 11.39-15.26z"/><path fill-rule="evenodd" fill="#1B1B1B" stroke="#E34234" stroke-width="12" d="M204.23 78.5c0-14.15 10.42-25.63 23.27-25.63 12.86 0 23.28 11.48 23.28 25.63 0 14.16-10.42 25.63-23.28 25.63-12.85 0-23.27-11.47-23.27-25.63z"/><path fill="none" stroke="#1B1B1B" stroke-width="8" d="M195.68 493.35l33.25-118.66 44.64 121.51"/></g></svg>